<svg width="402" height="496" viewBox="0 0 402 496" fill="none" xmlns="http://www.w3.org/2000/svg">
<path d="M365.08 234.32L310.92 209.28C306.766 207.358 303.249 204.288 300.783 200.432C298.316 196.577 297.004 192.097 297 187.52C297 182.343 294.943 177.378 291.283 173.717C287.622 170.057 282.657 168 277.48 168H257C257 163.52 257 157.68 257 152C257 149.878 256.157 147.843 254.657 146.343C253.156 144.843 251.122 144 249 144C246.878 144 244.843 144.843 243.343 146.343C241.843 147.843 241 149.878 241 152V168H220.52C215.343 168 210.378 170.057 206.717 173.717C203.057 177.378 201 182.343 201 187.52C200.996 192.097 199.683 196.577 197.217 200.432C194.751 204.288 191.233 207.358 187.08 209.28L132.92 234.32C125.233 237.862 118.354 242.942 112.707 249.247C107.06 255.552 102.766 262.947 100.09 270.977C97.4132 279.006 96.4112 287.499 97.1457 295.931C97.8802 304.363 100.335 312.554 104.36 320L147.56 400C151.091 406.655 152.958 414.066 153 421.6V472C153 478.365 155.528 484.47 160.029 488.971C164.53 493.471 170.635 496 177 496H321C327.365 496 333.47 493.471 337.97 488.971C342.471 484.47 345 478.365 345 472V421.6C345.042 414.066 346.909 406.655 350.44 400L393.64 320C397.653 312.552 400.098 304.361 400.827 295.932C401.555 287.503 400.551 279.014 397.875 270.988C395.2 262.962 390.91 255.568 385.27 249.262C379.63 242.956 372.759 237.871 365.08 234.32V234.32Z" fill="#DBCECE"/>
<path d="M2.99985 361.44C1.66809 364.745 0.988925 368.277 0.999852 371.84C1.02096 379.302 3.99459 386.452 9.27105 391.729C14.5475 397.005 21.6979 399.979 29.1599 400H229.16C236.566 399.895 243.635 396.885 248.842 391.617C254.05 386.35 256.98 379.247 257 371.84C257.011 368.277 256.332 364.745 255 361.44L217.8 268.48C215.388 262.457 214.478 255.939 215.147 249.486C215.816 243.033 218.044 236.84 221.64 231.44L246.04 194.88C250.851 187.736 254.202 179.71 255.897 171.265C257.593 162.821 257.601 154.124 255.92 145.676C254.24 137.228 250.904 129.196 246.105 122.044C241.306 114.891 235.139 108.759 227.96 104L188.6 77.76C187.543 77.066 186.666 76.1314 186.04 75.0328C185.414 73.9342 185.058 72.703 185 71.44V48C185 41.6348 182.471 35.5303 177.97 31.0294C173.47 26.5286 167.365 24 161 24H137V8C137 5.87827 136.157 3.84344 134.657 2.34315C133.156 0.842854 131.122 0 129 0C126.878 0 124.843 0.842854 123.343 2.34315C121.843 3.84344 121 5.87827 121 8V24H96.9999C90.6347 24 84.5302 26.5286 80.0293 31.0294C75.5284 35.5303 72.9999 41.6348 72.9999 48V71.44C72.993 72.7577 72.6609 74.0532 72.0328 75.2116C71.4048 76.37 70.5003 77.3553 69.3999 78.08L30.0399 104C22.8687 108.766 16.7098 114.901 11.9171 122.055C7.12437 129.208 3.79227 137.238 2.11221 145.682C0.432162 154.127 0.437269 162.821 2.12724 171.264C3.81721 179.707 7.15874 187.732 11.9599 194.88L36.3599 231.44C39.9556 236.84 42.1841 243.033 42.853 249.486C43.522 255.939 42.6114 262.457 40.1998 268.48L2.99985 361.44ZM49.6399 222.56L24.9999 186C17.7784 175.119 15.1633 161.819 17.7274 149.014C20.2914 136.209 27.8256 124.942 38.6799 117.68L78.0398 91.44C81.3822 89.2769 84.134 86.3164 86.0472 82.825C87.9605 79.3336 88.9752 75.4212 88.9999 71.44V48C88.9999 45.8783 89.8427 43.8434 91.343 42.3431C92.8433 40.8429 94.8781 40 96.9999 40H161C163.122 40 165.156 40.8429 166.657 42.3431C168.157 43.8434 169 45.8783 169 48V71.44C168.998 75.3993 169.976 79.2974 171.847 82.787C173.717 86.2766 176.422 89.2492 179.72 91.44L219.08 117.68C229.973 124.904 237.556 136.154 240.166 148.962C242.775 161.77 240.198 175.09 233 186L209 222.56C203.958 230.112 200.828 238.777 199.881 247.808C198.933 256.84 200.196 265.966 203.56 274.4L240.76 367.36C241.328 368.786 241.626 370.305 241.64 371.84C241.642 373.492 241.308 375.128 240.657 376.646C240.006 378.165 239.053 379.535 237.855 380.673C236.657 381.811 235.24 382.693 233.69 383.265C232.14 383.837 230.49 384.087 228.84 384H28.8398C25.6706 383.917 22.6592 382.599 20.4476 380.327C18.2359 378.056 16.9988 375.01 16.9999 371.84C17.0134 370.305 17.3118 368.786 17.8799 367.36L55.0799 274.4C58.4441 265.966 59.7067 256.84 58.759 247.808C57.8113 238.777 54.6817 230.112 49.6399 222.56V222.56Z" fill="#6A6A6C"/>
</svg>
