<svg width="497" height="497" viewBox="0 0 497 497" fill="none" xmlns="http://www.w3.org/2000/svg">
<path d="M483.68 424.4L216 156.32C210.165 150.308 202.661 146.181 194.458 144.475C186.255 142.768 177.728 143.558 169.979 146.744C162.229 149.93 155.612 155.365 150.981 162.348C146.351 169.331 143.919 177.542 144 185.92V192H176C178.122 192 180.157 192.843 181.657 194.343C183.157 195.844 184 197.879 184 200C184 202.122 183.157 204.157 181.657 205.657C180.157 207.157 178.122 208 176 208H144V240H176C178.122 240 180.157 240.843 181.657 242.343C183.157 243.844 184 245.879 184 248C184 250.122 183.157 252.157 181.657 253.657C180.157 255.157 178.122 256 176 256H144V288H176C178.122 288 180.157 288.843 181.657 290.343C183.157 291.844 184 293.878 184 296C184 298.122 183.157 300.157 181.657 301.657C180.157 303.157 178.122 304 176 304H144V336H176C178.122 336 180.157 336.843 181.657 338.343C183.157 339.844 184 341.878 184 344C184 346.122 183.157 348.157 181.657 349.657C180.157 351.157 178.122 352 176 352H144V384H176C178.122 384 180.157 384.843 181.657 386.343C183.157 387.844 184 389.878 184 392C184 394.122 183.157 396.157 181.657 397.657C180.157 399.157 178.122 400 176 400H144V432H176C178.122 432 180.157 432.843 181.657 434.343C183.157 435.844 184 437.879 184 440C184 442.122 183.157 444.157 181.657 445.657C180.157 447.157 178.122 448 176 448H144.64C146.377 459.944 151.925 471.007 160.459 479.541C168.994 488.075 180.056 493.624 192 495.36V464C192 461.879 192.843 459.844 194.343 458.343C195.843 456.843 197.878 456 200 456C202.122 456 204.157 456.843 205.657 458.343C207.157 459.844 208 461.879 208 464V496H240V464C240 461.879 240.843 459.844 242.343 458.343C243.843 456.843 245.878 456 248 456C250.122 456 252.157 456.843 253.657 458.343C255.157 459.844 256 461.879 256 464V496H288V464C288 461.879 288.843 459.844 290.343 458.343C291.843 456.843 293.878 456 296 456C298.122 456 300.157 456.843 301.657 458.343C303.157 459.844 304 461.879 304 464V496H336V464C336 461.879 336.843 459.844 338.343 458.343C339.843 456.843 341.878 456 344 456C346.122 456 348.157 456.843 349.657 458.343C351.157 459.844 352 461.879 352 464V496H384V464C384 461.879 384.843 459.844 386.343 458.343C387.843 456.843 389.878 456 392 456C394.122 456 396.157 456.843 397.657 458.343C399.157 459.844 400 461.879 400 464V496H432V464C432 461.879 432.843 459.844 434.343 458.343C435.843 456.843 437.878 456 440 456C442.122 456 444.157 456.843 445.657 458.343C447.157 459.844 448 461.879 448 464V496H454.08C462.458 496.081 470.669 493.649 477.652 489.019C484.635 484.388 490.07 477.771 493.256 470.022C496.442 462.272 497.233 453.746 495.526 445.542C493.819 437.339 489.693 429.836 483.68 424V424.4ZM342.88 416.4H232C229.878 416.4 227.843 415.557 226.343 414.057C224.843 412.557 224 410.522 224 408.4V297.12C223.991 295.531 224.455 293.975 225.333 292.651C226.212 291.327 227.465 290.295 228.932 289.685C230.4 289.076 232.015 288.917 233.573 289.23C235.131 289.543 236.561 290.312 237.68 291.44L348.56 402.32C349.688 403.439 350.458 404.869 350.77 406.427C351.083 407.985 350.924 409.601 350.315 411.068C349.706 412.536 348.673 413.788 347.349 414.667C346.025 415.545 344.469 416.009 342.88 416V416.4Z" fill="#DBCECE"/>
<path d="M328.96 13.6801C324.635 9.34549 319.498 5.90651 313.842 3.56008C308.186 1.21365 302.123 0.00585937 296 0.00585938C289.877 0.00585937 283.814 1.21365 278.158 3.56008C272.502 5.90651 267.365 9.34549 263.04 13.6801L13.6801 263.04C9.34549 267.365 5.90651 272.502 3.56008 278.158C1.21365 283.814 0.00585937 289.877 0.00585938 296C0.00585937 302.123 1.21365 308.186 3.56008 313.842C5.90651 319.498 9.34549 324.635 13.6801 328.96L71.0401 386.32C75.365 390.655 80.5024 394.094 86.1581 396.44C91.8139 398.787 97.8769 399.994 104 399.994C110.123 399.994 116.186 398.787 121.842 396.44C127.498 394.094 132.635 390.655 136.96 386.32L386.32 136.96C390.655 132.635 394.094 127.498 396.44 121.842C398.787 116.186 399.994 110.123 399.994 104C399.994 97.8769 398.787 91.8139 396.44 86.1581C394.094 80.5024 390.655 75.365 386.32 71.0401L328.96 13.6801ZM375.04 125.68L125.68 375.04C119.844 380.624 112.078 383.741 104 383.741C95.9226 383.741 88.1565 380.624 82.3201 375.04L24.9601 317.68C19.2248 311.922 16.0047 304.127 16.0047 296C16.0047 287.873 19.2248 280.078 24.9601 274.32L48.0001 251.36L74.3201 277.68C75.8265 279.187 77.8697 280.033 80.0001 280.033C82.1305 280.033 84.1737 279.187 85.6801 277.68C87.1865 276.174 88.0329 274.131 88.0329 272C88.0329 269.87 87.1865 267.827 85.6801 266.32L59.3601 240L96.0001 203.36L122.32 229.68C123.827 231.187 125.87 232.033 128 232.033C130.131 232.033 132.174 231.187 133.68 229.68C135.187 228.174 136.033 226.131 136.033 224C136.033 221.87 135.187 219.827 133.68 218.32L107.36 192L144 155.36L170.32 181.68C171.066 182.426 171.952 183.018 172.926 183.421C173.901 183.825 174.945 184.033 176 184.033C177.055 184.033 178.1 183.825 179.074 183.421C180.049 183.018 180.934 182.426 181.68 181.68C182.426 180.934 183.018 180.049 183.421 179.074C183.825 178.1 184.033 177.055 184.033 176C184.033 174.945 183.825 173.901 183.421 172.926C183.018 171.952 182.426 171.066 181.68 170.32L155.36 144L192 107.36L218.32 133.68C219.827 135.187 221.87 136.033 224 136.033C226.131 136.033 228.174 135.187 229.68 133.68C231.187 132.174 232.033 130.131 232.033 128C232.033 125.87 231.187 123.827 229.68 122.32L203.36 96.0001L240 59.3601L266.32 85.6801C267.827 87.1865 269.87 88.0329 272 88.0329C274.131 88.0329 276.174 87.1865 277.68 85.6801C279.187 84.1737 280.033 82.1305 280.033 80.0001C280.033 77.8697 279.187 75.8265 277.68 74.3201L251.36 48.0001L274.32 24.9601C280.078 19.2248 287.873 16.0047 296 16.0047C304.127 16.0047 311.922 19.2248 317.68 24.9601L375.04 82.3201C377.89 85.1658 380.15 88.5453 381.692 92.2654C383.235 95.9854 384.029 99.973 384.029 104C384.029 108.027 383.235 112.015 381.692 115.735C380.15 119.455 377.89 122.834 375.04 125.68V125.68Z" fill="#6A6A6C"/>
</svg>
