<svg width="479" height="496" viewBox="0 0 479 496" fill="none" xmlns="http://www.w3.org/2000/svg">
<path d="M295 128C258.608 128 223.034 138.791 192.775 159.01C162.516 179.228 138.933 207.965 125.006 241.586C111.079 275.208 107.436 312.204 114.535 347.897C121.635 383.589 139.159 416.375 164.892 442.108C190.625 467.84 223.411 485.365 259.103 492.464C294.796 499.564 331.792 495.92 365.414 481.994C399.035 468.067 427.772 444.484 447.99 414.225C468.208 383.966 479 348.392 479 312C478.945 263.217 459.541 216.448 425.047 181.953C390.552 147.458 343.783 128.055 295 128ZM226 367.768C211.664 367.944 201.24 368.016 193.624 368.016C186.397 368.62 179.123 368.351 171.96 367.216C170.682 366.752 169.524 366.008 168.57 365.039C167.617 364.071 166.892 362.901 166.448 361.616C165.016 356.984 166.896 354.504 173.112 346.264C178.248 339.464 187.808 326.8 203.824 303.648C208.154 297.827 211.376 291.259 213.328 284.272L213.616 281.696C213.599 277.264 211.928 272.998 208.929 269.735C205.931 266.472 201.821 264.446 197.407 264.055C192.992 263.665 188.591 264.937 185.066 267.624C181.541 270.31 179.146 274.216 178.352 278.576C178.186 279.638 177.807 280.656 177.239 281.569C176.67 282.482 175.924 283.271 175.044 283.889C174.163 284.506 173.168 284.94 172.116 285.165C171.064 285.389 169.978 285.399 168.923 285.194C167.867 284.989 166.864 284.573 165.972 283.971C165.081 283.37 164.32 282.595 163.735 281.693C163.15 280.79 162.753 279.779 162.568 278.72C162.382 277.661 162.412 276.575 162.656 275.528C164.217 267.229 168.83 259.816 175.586 254.75C182.342 249.684 190.75 247.333 199.154 248.159C207.558 248.985 215.348 252.929 220.988 259.214C226.627 265.499 229.709 273.668 229.624 282.112C229.624 282.984 229.528 283.224 229.056 287.056C226.733 296.322 222.633 305.049 216.984 312.752C203.44 332.328 194.448 344.504 188.824 352C198.736 352 212.72 351.944 225.792 351.776C227.895 351.809 229.907 352.645 231.413 354.113C232.92 355.581 233.808 357.57 233.896 359.672C233.921 361.792 233.104 363.836 231.624 365.354C230.143 366.872 228.12 367.741 226 367.768V367.768ZM319 337.304H312.832C312.76 348.584 312.688 357.368 312.664 360.064C312.647 362.175 311.797 364.193 310.298 365.68C308.8 367.166 306.775 368 304.664 368H304.6C302.479 367.981 300.453 367.121 298.967 365.609C297.48 364.097 296.655 362.056 296.672 359.936C296.728 353.056 296.792 345.328 296.84 337.304H254.44C253.057 337.305 251.698 336.947 250.494 336.265C249.291 335.584 248.285 334.602 247.574 333.416C246.863 332.23 246.472 330.879 246.439 329.497C246.406 328.115 246.731 326.747 247.384 325.528C253.04 314.96 281.536 261.864 287.224 254.664C288.824 252.032 291.257 250.009 294.136 248.915C297.016 247.822 300.178 247.72 303.122 248.626C306.066 249.533 308.624 251.395 310.39 253.919C312.156 256.443 313.029 259.484 312.872 262.56C313.168 266.304 313.072 295.64 312.872 321.304H319C321.122 321.304 323.156 322.147 324.657 323.647C326.157 325.147 327 327.182 327 329.304C327 331.426 326.157 333.461 324.657 334.961C323.156 336.461 321.122 337.304 319 337.304V337.304ZM423 368C420.878 368 418.843 367.157 417.343 365.657C415.843 364.157 415 362.122 415 360L414.848 324.304C414.976 302.12 408.04 298.704 396.864 298.704C383.992 298.704 375 309.216 375 324.304V360C375 362.122 374.157 364.157 372.657 365.657C371.156 367.157 369.122 368 367 368C364.878 368 362.843 367.157 361.343 365.657C359.843 364.157 359 362.122 359 360V256C359 253.878 359.843 251.843 361.343 250.343C362.843 248.843 364.878 248 367 248C369.122 248 371.156 248.843 372.657 250.343C374.157 251.843 375 253.878 375 256V289.744C381.341 285.11 389.01 282.649 396.864 282.728C421.952 282.728 431.008 299.264 430.848 324.328L431 360C431 362.122 430.157 364.157 428.657 365.657C427.156 367.157 425.122 368 423 368V368Z" fill="#DBCECE"/>
<path d="M267.848 321.304H296.936C297.072 299.496 297.144 278.336 297.056 268.816C291.128 278.616 278.296 301.96 267.848 321.304V321.304Z" fill="#DBCECE"/>
<path d="M261.944 276C262.996 274.158 263.273 271.974 262.715 269.928C262.157 267.882 260.809 266.141 258.968 265.088L207 235.36V128C207 125.878 206.157 123.843 204.657 122.343C203.157 120.843 201.122 120 199 120C196.878 120 194.843 120.843 193.343 122.343C191.843 123.843 191 125.878 191 128V240C191.109 241.382 191.525 242.722 192.217 243.923C192.909 245.124 193.86 246.156 195 246.944L251 278.944C251.911 279.471 252.918 279.813 253.962 279.95C255.006 280.088 256.066 280.018 257.083 279.744C258.1 279.471 259.053 278.999 259.887 278.357C260.721 277.714 261.42 276.913 261.944 276V276Z" fill="#6A6A6C"/>
<path d="M367.136 91.6481C366.571 90.7546 365.835 89.9818 364.969 89.3746C364.104 88.7674 363.127 88.3376 362.095 88.1103C361.062 87.8829 359.995 87.8623 358.955 88.0499C357.915 88.2374 356.922 88.6292 356.034 89.2027C355.146 89.7762 354.38 90.52 353.781 91.3911C353.183 92.2622 352.762 93.2434 352.545 94.2779C352.328 95.3124 352.317 96.3797 352.515 97.4182C352.712 98.4566 353.114 99.4457 353.696 100.328C379.126 139.677 388.629 187.228 380.275 233.329C371.921 279.429 346.336 320.622 308.715 348.545C271.094 376.467 224.257 389.027 177.713 383.672C131.168 378.318 88.4063 355.452 58.1083 319.716C27.8104 283.98 12.2475 238.053 14.5795 191.26C16.9116 144.467 36.9637 100.315 70.6647 67.769C104.366 35.2227 149.189 16.7213 196.035 16.0213C242.881 15.3213 288.238 32.4752 322.896 64.0001H311C308.878 64.0001 306.843 64.8429 305.343 66.3432C303.843 67.8435 303 69.8783 303 72.0001C303 74.1218 303.843 76.1566 305.343 77.6569C306.843 79.1572 308.878 80.0001 311 80.0001H343C345.122 80.0001 347.157 79.1572 348.657 77.6569C350.157 76.1566 351 74.1218 351 72.0001V40.0001C351 37.8783 350.157 35.8435 348.657 34.3432C347.157 32.8429 345.122 32.0001 343 32.0001C340.878 32.0001 338.843 32.8429 337.343 34.3432C335.843 35.8435 335 37.8783 335 40.0001V53.4401C297.802 19.0774 248.908 0.18009 198.269 0.594063C147.63 1.00804 99.0513 20.7022 62.42 55.6684C25.7887 90.6346 3.85761 138.245 1.09003 188.81C-1.67755 239.375 14.9264 289.095 47.5227 327.85C80.1189 366.605 126.258 391.484 176.549 397.422C226.841 403.36 277.505 389.912 318.231 359.814C358.957 329.717 386.685 285.231 395.77 235.412C404.855 185.593 394.616 134.184 367.136 91.6481V91.6481Z" fill="#6A6A6C"/>
<path d="M199 64C201.122 64 203.157 63.1571 204.657 61.6569C206.157 60.1566 207 58.1217 207 56V40C207 37.8783 206.157 35.8434 204.657 34.3431C203.157 32.8429 201.122 32 199 32C196.878 32 194.843 32.8429 193.343 34.3431C191.843 35.8434 191 37.8783 191 40V56C191 58.1217 191.843 60.1566 193.343 61.6569C194.843 63.1571 196.878 64 199 64Z" fill="#6A6A6C"/>
<path d="M191 344V360C191 362.122 191.843 364.157 193.343 365.657C194.843 367.157 196.878 368 199 368C201.122 368 203.157 367.157 204.657 365.657C206.157 364.157 207 362.122 207 360V344C207 341.878 206.157 339.843 204.657 338.343C203.157 336.843 201.122 336 199 336C196.878 336 194.843 336.843 193.343 338.343C191.843 339.843 191 341.878 191 344Z" fill="#6A6A6C"/>
<path d="M335 200C335 202.122 335.843 204.157 337.343 205.657C338.843 207.157 340.878 208 343 208H359C361.122 208 363.157 207.157 364.657 205.657C366.157 204.157 367 202.122 367 200C367 197.878 366.157 195.843 364.657 194.343C363.157 192.843 361.122 192 359 192H343C340.878 192 338.843 192.843 337.343 194.343C335.843 195.843 335 197.878 335 200Z" fill="#6A6A6C"/>
<path d="M39 192C36.8783 192 34.8434 192.843 33.3431 194.343C31.8429 195.843 31 197.878 31 200C31 202.122 31.8429 204.157 33.3431 205.657C34.8434 207.157 36.8783 208 39 208H55C57.1217 208 59.1566 207.157 60.6569 205.657C62.1571 204.157 63 202.122 63 200C63 197.878 62.1571 195.843 60.6569 194.343C59.1566 192.843 57.1217 192 55 192H39Z" fill="#6A6A6C"/>
</svg>
