<?xml version="1.0" encoding="UTF-8"?> <svg xmlns="http://www.w3.org/2000/svg" xmlns:xlink="http://www.w3.org/1999/xlink" xmlns:svgjs="http://svgjs.com/svgjs" width="512" height="512" x="0" y="0" viewBox="0 0 64 64" style="enable-background:new 0 0 512 512" xml:space="preserve" class=""> <g> <path xmlns="http://www.w3.org/2000/svg" d="m61.46 54.05-33.46-33.51a5.24 5.24 0 0 0 -9 3.7v.76h4a1 1 0 0 1 0 2h-4v4h4a1 1 0 0 1 0 2h-4v4h4a1 1 0 0 1 0 2h-4v4h4a1 1 0 0 1 0 2h-4v4h4a1 1 0 0 1 0 2h-4v4h4a1 1 0 0 1 0 2h-3.92a7 7 0 0 0 5.92 5.92v-3.92a1 1 0 0 1 2 0v4h4v-4a1 1 0 0 1 2 0v4h4v-4a1 1 0 0 1 2 0v4h4v-4a1 1 0 0 1 2 0v4h4v-4a1 1 0 0 1 2 0v4h4v-4a1 1 0 0 1 2 0v4h.76a5.24 5.24 0 0 0 3.7-9zm-17.6-1h-13.86a1 1 0 0 1 -1-1v-13.91a1 1 0 0 1 1.71-.71l13.86 13.86a1 1 0 0 1 -.71 1.71z" fill="#dbcece" data-original="#c4a2fc" style=""></path> <path xmlns="http://www.w3.org/2000/svg" d="m42.12 2.71a5.82 5.82 0 0 0 -8.24 0l-31.17 31.17a5.82 5.82 0 0 0 0 8.24l7.17 7.17a5.82 5.82 0 0 0 8.24 0l31.17-31.17a5.82 5.82 0 0 0 0-8.24zm5.76 14-31.17 31.17a3.92 3.92 0 0 1 -5.42 0l-7.17-7.17a3.84 3.84 0 0 1 0-5.42l2.88-2.87 3.29 3.29a1 1 0 0 0 1.42-1.42l-3.29-3.29 4.58-4.58 3.29 3.29a1 1 0 0 0 1.42-1.42l-3.29-3.29 4.58-4.58 3.29 3.29a1 1 0 0 0 1.42-1.42l-3.29-3.29 4.58-4.58 3.29 3.29a1 1 0 0 0 1.42-1.42l-3.29-3.29 4.58-4.58 3.29 3.29a1 1 0 0 0 1.42-1.42l-3.29-3.29 2.87-2.88a3.84 3.84 0 0 1 5.42 0l7.17 7.17a3.83 3.83 0 0 1 0 5.42z" fill="#6a6a6c" data-original="#151a6a" style="" class=""></path> </g> </svg> 