<svg width="156" height="36" viewBox="0 0 156 36" fill="none" xmlns="http://www.w3.org/2000/svg">
<rect x="42" width="114" height="36" rx="18" fill="#F26767"/>
<path d="M0.88 30V4.8H6.316C8.644 4.8 10.456 5.316 11.752 6.348C13.072 7.356 13.732 8.94 13.732 11.1C13.732 12.636 13.348 13.956 12.58 15.06C11.812 16.164 10.684 16.92 9.196 17.328C10.756 17.664 12.052 18.372 13.084 19.452C14.14 20.508 14.668 21.864 14.668 23.52C14.668 25.56 13.912 27.156 12.4 28.308C10.888 29.436 9.076 30 6.964 30H0.88ZM2.212 17.904V28.812H6.964C8.788 28.812 10.3 28.356 11.5 27.444C12.724 26.508 13.336 25.164 13.336 23.412C13.336 21.636 12.652 20.28 11.284 19.344C9.94 18.384 8.296 17.904 6.352 17.904H2.212ZM2.212 5.988V16.716H6.856C8.536 16.716 9.88 16.2 10.888 15.168C11.896 14.136 12.4 12.78 12.4 11.1C12.4 7.692 10.528 5.988 6.784 5.988H2.212ZM20.5416 30V4.8H35.2656V5.988H21.8736V16.716H33.8616V17.904H21.8736V28.812H35.7696V30H20.5416ZM52.9557 30V4.8H54.2877V28.812H68.1837V30H52.9557ZM86.1035 30.288C82.5515 30.288 79.5155 29.04 76.9955 26.544C74.4995 24.024 73.2515 20.988 73.2515 17.436C73.2515 13.86 74.4995 10.812 76.9955 8.292C79.5155 5.772 82.5515 4.512 86.1035 4.512C89.6795 4.512 92.7275 5.772 95.2475 8.292C97.7675 10.812 99.0275 13.86 99.0275 17.436C99.0275 20.988 97.7675 24.024 95.2475 26.544C92.7275 29.04 89.6795 30.288 86.1035 30.288ZM77.9675 9.264C75.7115 11.544 74.5835 14.268 74.5835 17.436C74.5835 20.604 75.7115 23.316 77.9675 25.572C80.2235 27.828 82.9355 28.956 86.1035 28.956C89.2715 28.956 91.9955 27.828 94.2755 25.572C96.5555 23.316 97.6955 20.604 97.6955 17.436C97.6955 14.268 96.5555 11.544 94.2755 9.264C91.9955 6.984 89.2715 5.844 86.1035 5.844C82.9355 5.844 80.2235 6.984 77.9675 9.264ZM124.114 4.8H125.518L114.358 31.152L103.198 4.8H104.602L114.034 27.048L114.358 28.128L114.682 27.048L124.114 4.8ZM148.059 30H146.655L142.083 19.2H131.715L127.143 30H125.739L136.899 3.648L148.059 30ZM136.539 7.824L132.219 17.976H141.543L137.259 7.824L136.899 6.672L136.539 7.824Z" fill="#F2A5A5"/>
</svg>