<?xml version="1.0" standalone="no"?>
<!DOCTYPE svg PUBLIC "-//W3C//DTD SVG 20010904//EN"
 "http://www.w3.org/TR/2001/REC-SVG-20010904/DTD/svg10.dtd">
<svg version="1.0" xmlns="http://www.w3.org/2000/svg"
 width="436.000000pt" height="437.000000pt" viewBox="0 0 436.000000 437.000000"
 preserveAspectRatio="xMidYMid meet">

<g transform="translate(0.000000,437.000000) scale(0.100000,-0.100000)"
fill="#000000" stroke="none">
<path d="M2364 3059 c-29 -15 -54 -61 -54 -101 0 -36 -27 -83 -303 -520 -75
-120 -137 -223 -137 -230 0 -17 45 28 109 109 208 267 384 483 392 483 5 0 28
-12 52 -27 23 -15 43 -28 44 -28 1 -1 -17 -55 -40 -121 -36 -104 -42 -130 -42
-206 0 -77 3 -90 22 -110 31 -31 36 -19 12 28 -29 54 -20 131 30 273 22 62 42
116 45 119 13 12 79 -67 113 -135 33 -66 53 -90 53 -63 0 27 -76 156 -114 193
-37 37 -41 46 -35 72 39 168 -43 314 -147 264z m85 -35 c47 -39 64 -131 40
-217 -10 -36 -10 -37 -37 -23 -65 34 -66 38 -43 81 42 78 14 132 -51 99 -26
-14 -28 -13 -28 7 0 24 51 79 73 79 9 0 29 -12 46 -26z m-49 -97 c0 -23 -25
-67 -39 -67 -4 0 -13 11 -19 24 -9 19 -7 28 9 45 26 28 49 27 49 -2z m-79
-110 c-19 -19 -21 -20 -21 -4 0 10 5 28 11 39 11 20 12 20 21 3 8 -13 5 -22
-11 -38z"/>
<path d="M2385 2140 c-42 -13 -91 -67 -104 -114 -40 -150 138 -266 253 -166
45 40 60 79 54 141 -10 104 -105 169 -203 139z m125 -38 c53 -39 75 -124 46
-180 -28 -55 -63 -77 -119 -77 -84 0 -137 54 -137 138 0 112 123 182 210 119z"/>
<path d="M1484 2127 c-2 -7 -3 -76 -2 -152 l3 -140 54 -3 c91 -5 141 29 141
96 0 24 -9 42 -29 63 -25 25 -37 29 -84 29 -50 0 -55 2 -59 25 -3 14 -3 36 0
50 4 24 8 25 68 25 36 0 64 4 64 10 0 16 -150 13 -156 -3z m151 -152 c57 -57
11 -125 -85 -125 l-40 0 0 75 0 75 50 0 c41 0 56 -5 75 -25z"/>
<path d="M1754 2127 c-2 -7 -3 -76 -2 -152 l3 -140 88 -3 c53 -2 87 1 87 7 0
6 -35 11 -77 13 l-78 3 0 60 0 60 63 3 c34 2 62 7 62 12 0 10 -8 12 -70 15
-19 1 -41 3 -48 4 -8 1 -12 14 -11 39 3 72 3 72 80 72 39 0 69 4 69 10 0 16
-160 13 -166 -3z"/>
<path d="M2098 2114 c-35 -67 -119 -277 -113 -282 10 -10 21 11 65 123 24 61
49 116 56 123 9 11 21 -9 56 -95 25 -59 49 -118 52 -130 7 -23 26 -32 26 -13
0 11 -91 234 -112 275 l-16 29 -14 -30z"/>
<path d="M2667 2133 c-4 -3 -7 -73 -7 -155 l0 -148 66 0 c77 0 118 19 133 62
12 33 6 54 -21 84 -18 20 -18 23 -2 51 23 39 12 78 -26 98 -29 15 -131 21
-143 8z m128 -25 c30 -14 44 -54 24 -73 -16 -16 -78 -26 -108 -18 -25 6 -35
34 -26 73 6 27 10 30 45 30 22 0 51 -5 65 -12z m19 -139 c32 -25 35 -68 6 -94
-26 -23 -119 -33 -131 -14 -10 16 -12 113 -2 122 15 16 101 7 127 -14z"/>
<path d="M2971 1997 c-33 -79 -61 -147 -61 -151 0 -19 19 0 38 39 l22 45 70 0
71 0 20 -45 c11 -25 24 -45 29 -45 6 0 10 3 10 6 0 13 -113 270 -125 282 -10
11 -24 -13 -74 -131z m102 28 c15 -36 27 -68 27 -70 0 -3 -27 -5 -60 -5 -33 0
-60 3 -60 8 0 14 53 132 60 132 3 0 18 -29 33 -65z"/>
<path d="M1514 1654 c3 -9 7 -41 7 -72 2 -53 2 -54 8 -17 8 51 2 105 -11 105
-6 0 -7 -7 -4 -16z"/>
<path d="M1601 1640 c-4 -43 -1 -103 5 -109 9 -9 10 7 4 74 -4 43 -8 56 -9 35z"/>
<path d="M1918 1605 c2 -36 8 -65 13 -65 5 0 7 26 5 58 -5 72 -5 72 -13 72 -5
0 -6 -29 -5 -65z"/>
<path d="M2288 1603 c5 -91 12 -94 12 -5 0 40 -3 72 -8 72 -4 0 -6 -30 -4 -67z"/>
<path d="M2599 1598 l5 -73 6 50 c7 51 3 95 -9 95 -3 0 -4 -33 -2 -72z"/>
<path d="M2487 1653 c-11 -18 3 -42 34 -59 27 -14 34 -25 29 -49 -1 -5 4 -5
11 2 17 16 5 41 -30 61 -17 9 -32 26 -33 37 -2 13 -6 16 -11 8z"/>
<path d="M2808 1640 c-8 -26 7 -103 22 -108 13 -5 13 -3 1 11 -8 11 -12 30 -8
50 5 34 -6 72 -15 47z"/>
<path d="M1684 1617 c9 -7 17 -17 16 -22 -2 -6 -2 -20 -1 -32 2 -34 21 -28 21
6 0 30 -22 61 -43 61 -6 0 -3 -6 7 -13z"/>
<path d="M1748 1585 c2 -25 8 -45 14 -45 12 0 6 82 -7 87 -6 2 -9 -15 -7 -42z"/>
<path d="M1968 1585 c2 -25 8 -45 14 -45 12 0 6 82 -7 87 -6 2 -9 -15 -7 -42z"/>
<path d="M2018 1618 c6 -7 12 -31 15 -53 l4 -40 1 46 c2 35 -2 48 -14 53 -13
5 -14 3 -6 -6z"/>
<path d="M2075 1620 c5 -8 12 -33 16 -55 l6 -40 2 41 c1 28 -5 46 -16 55 -15
12 -16 12 -8 -1z"/>
<path d="M2373 1623 c9 -2 17 -13 17 -24 0 -10 5 -19 10 -19 14 0 13 23 -2 38
-7 7 -19 11 -27 11 -12 -1 -12 -2 2 -6z"/>
<path d="M2745 1617 c10 -8 15 -19 12 -25 -4 -5 -3 -21 2 -34 9 -20 10 -18 10
18 1 29 -4 44 -15 48 -25 10 -29 7 -9 -7z"/>
<path d="M2870 1598 c0 -36 23 -78 36 -65 4 4 2 7 -4 7 -7 0 -12 16 -12 39 0
22 -4 43 -10 46 -6 4 -10 -8 -10 -27z"/>
<path d="M2938 1584 c-2 -25 0 -48 4 -50 5 -3 8 18 8 45 0 64 -7 66 -12 5z"/>
<path d="M2988 1582 c6 -62 12 -67 12 -9 0 25 -4 48 -9 51 -5 3 -6 -16 -3 -42z"/>
<path d="M3102 1620 c11 -7 15 -21 14 -45 -2 -19 1 -35 5 -35 5 0 9 15 9 33 0
33 -15 57 -34 57 -6 0 -3 -5 6 -10z"/>
<path d="M1816 1578 c9 -57 14 -61 14 -10 0 22 -5 44 -10 47 -7 4 -8 -8 -4
-37z"/>
<path d="M1867 1613 c-13 -13 -7 -61 10 -74 15 -13 15 -12 4 9 -7 13 -10 35
-7 48 7 25 4 29 -7 17z"/>
<path d="M2177 1601 c-6 -25 2 -61 14 -61 11 0 11 51 0 68 -6 10 -10 9 -14 -7z"/>
<path d="M2227 1599 c-7 -26 8 -69 24 -69 8 0 8 4 -1 15 -7 9 -10 27 -6 45 6
34 -9 42 -17 9z"/>
<path d="M2335 1601 c-7 -23 2 -61 14 -61 9 0 6 68 -2 77 -3 2 -8 -5 -12 -16z"/>
<path d="M2659 1574 c2 -31 6 -43 13 -36 11 11 2 82 -10 82 -4 0 -6 -21 -3
-46z"/>
<path d="M1651 1566 c-9 -10 -8 -16 4 -26 9 -7 18 -10 22 -6 3 3 1 6 -6 6 -8
0 -11 8 -8 20 6 24 4 25 -12 6z"/>
<path d="M2132 1572 c-17 -11 -4 -42 17 -42 13 0 13 2 2 9 -8 5 -11 16 -8 25
7 18 7 19 -11 8z"/>
<path d="M2707 1573 c-11 -11 -8 -30 6 -36 7 -3 12 4 12 19 0 24 -6 30 -18 17z"/>
<path d="M3064 1565 c-8 -19 3 -35 24 -35 14 0 14 2 3 9 -8 5 -11 16 -8 25 4
9 2 16 -4 16 -5 0 -12 -7 -15 -15z"/>
</g>
</svg>
