<svg width="149" height="29" viewBox="0 0 149 29" fill="none" xmlns="http://www.w3.org/2000/svg">
<path d="M0.88 27V1.8H6.316C8.644 1.8 10.456 2.316 11.752 3.348C13.072 4.356 13.732 5.94 13.732 8.1C13.732 9.636 13.348 10.956 12.58 12.06C11.812 13.164 10.684 13.92 9.196 14.328C10.756 14.664 12.052 15.372 13.084 16.452C14.14 17.508 14.668 18.864 14.668 20.52C14.668 22.56 13.912 24.156 12.4 25.308C10.888 26.436 9.076 27 6.964 27H0.88ZM2.212 14.904V25.812H6.964C8.788 25.812 10.3 25.356 11.5 24.444C12.724 23.508 13.336 22.164 13.336 20.412C13.336 18.636 12.652 17.28 11.284 16.344C9.94 15.384 8.296 14.904 6.352 14.904H2.212ZM2.212 2.988V13.716H6.856C8.536 13.716 9.88 13.2 10.888 12.168C11.896 11.136 12.4 9.78 12.4 8.1C12.4 4.692 10.528 2.988 6.784 2.988H2.212ZM20.5416 27V1.8H35.2656V2.988H21.8736V13.716H33.8616V14.904H21.8736V25.812H35.7696V27H20.5416ZM52.9557 27V1.8H54.2877V25.812H68.1837V27H52.9557ZM86.1035 27.288C82.5515 27.288 79.5155 26.04 76.9955 23.544C74.4995 21.024 73.2515 17.988 73.2515 14.436C73.2515 10.86 74.4995 7.812 76.9955 5.292C79.5155 2.772 82.5515 1.512 86.1035 1.512C89.6795 1.512 92.7275 2.772 95.2475 5.292C97.7675 7.812 99.0275 10.86 99.0275 14.436C99.0275 17.988 97.7675 21.024 95.2475 23.544C92.7275 26.04 89.6795 27.288 86.1035 27.288ZM77.9675 6.264C75.7115 8.544 74.5835 11.268 74.5835 14.436C74.5835 17.604 75.7115 20.316 77.9675 22.572C80.2235 24.828 82.9355 25.956 86.1035 25.956C89.2715 25.956 91.9955 24.828 94.2755 22.572C96.5555 20.316 97.6955 17.604 97.6955 14.436C97.6955 11.268 96.5555 8.544 94.2755 6.264C91.9955 3.984 89.2715 2.844 86.1035 2.844C82.9355 2.844 80.2235 3.984 77.9675 6.264ZM124.114 1.8H125.518L114.358 28.152L103.198 1.8H104.602L114.034 24.048L114.358 25.128L114.682 24.048L124.114 1.8ZM148.059 27H146.655L142.083 16.2H131.715L127.143 27H125.739L136.899 0.647998L148.059 27ZM136.539 4.824L132.219 14.976H141.543L137.259 4.824L136.899 3.672L136.539 4.824Z" fill="#F2A5A5"/>
</svg>
