<svg xmlns="http://www.w3.org/2000/svg"  viewBox="0 0 40 40" width="40px" height="40px"><path fill="#98ccfd" d="M20,1C9.507,1,1,9.507,1,20s8.507,19,19,19s19-8.507,19-19S30.493,1,20,1z"/><path fill="#4788c7" d="M20,2c9.925,0,18,8.075,18,18s-8.075,18-18,18S2,29.925,2,20S10.075,2,20,2 M20,1 C9.507,1,1,9.507,1,20s8.507,19,19,19s19-8.507,19-19S30.493,1,20,1L20,1z"/><path fill="#fff" d="M30.937,14.541c0.046-0.151,0.068-0.291,0.062-0.416c-0.015-0.362-0.264-0.625-0.85-0.625h-2.618	c-0.661,0-0.966,0.4-1.144,0.801c0,0-1.632,3.359-3.513,5.574c-0.61,0.641-0.92,0.625-1.25,0.625C21.447,20.5,21,20.286,21,19.699	v-5.185c0-0.694-0.173-1.014-0.732-1.014h-4.649C15.212,13.5,15,13.82,15,14.141c0,0.667,0.898,0.827,1,2.696v3.623	c0,0.88-0.153,1.04-0.483,1.04c-0.89,0-2.642-3-3.815-6.932c-0.254-0.774-0.508-1.068-1.169-1.068H7.89	C7.127,13.5,7,13.874,7,14.274c0,0.721,0.6,4.619,3.875,9.101c2.375,3.25,5.504,5.125,8.274,5.125c1.678,0,1.85-0.427,1.85-1.094	v-2.972C21,23.633,21.183,23.5,21.717,23.5c0.381,0,1.158,0.25,2.658,2c1.73,2.018,2.044,3,3.036,3h2.618	c0.608,0,0.957-0.255,0.971-0.75c0.003-0.126-0.015-0.267-0.056-0.424C30.75,26.75,29.86,25.342,28.75,24	c-0.615-0.743-1.222-1.479-1.501-1.879C27.062,21.86,26.991,21.676,27,21.5c0.009-0.185,0.105-0.361,0.249-0.607	C27.223,20.893,30.607,16.142,30.937,14.541z"/></svg>

