<?xml version="1.0" encoding="UTF-8"?> <svg xmlns="http://www.w3.org/2000/svg" xmlns:xlink="http://www.w3.org/1999/xlink" xmlns:svgjs="http://svgjs.com/svgjs" width="512" height="512" x="0" y="0" viewBox="0 0 64 64" style="enable-background:new 0 0 512 512" xml:space="preserve" class=""> <g> <path xmlns="http://www.w3.org/2000/svg" d="m52.51 30.29-6.77-3.13a3 3 0 0 1 -1.74-2.72 2.44 2.44 0 0 0 -2.44-2.44h-2.56c0-.56 0-1.29 0-2a1 1 0 0 0 -1-1 1 1 0 0 0 -1 1v2h-2.56a2.44 2.44 0 0 0 -2.44 2.44 3 3 0 0 1 -1.74 2.72l-6.77 3.13a7.74 7.74 0 0 0 -3.57 10.71l5.4 10a5.83 5.83 0 0 1 .68 2.7v6.3a3 3 0 0 0 3 3h18a3 3 0 0 0 3-3v-6.3a5.83 5.83 0 0 1 .68-2.7l5.4-10a7.75 7.75 0 0 0 -3.57-10.71z" fill="#dbcece" data-original="#c4a2fc" style="" class=""></path> <path xmlns="http://www.w3.org/2000/svg" d="m7.25 46.18a3.45 3.45 0 0 0 -.25 1.3 3.53 3.53 0 0 0 3.52 3.52h25a3.53 3.53 0 0 0 3.48-3.52 3.45 3.45 0 0 0 -.25-1.3l-4.65-11.62a5 5 0 0 1 .48-4.63l3.05-4.57a8.16 8.16 0 0 0 -2.26-11.36l-4.92-3.28a1 1 0 0 1 -.45-.79v-2.93a3 3 0 0 0 -3-3h-3v-2a1 1 0 0 0 -2 0v2h-3a3 3 0 0 0 -3 3v2.93a1 1 0 0 1 -.45.83l-4.92 3.24a8.17 8.17 0 0 0 -2.26 11.36l3.05 4.57a5 5 0 0 1 .48 4.63zm5.83-17.36-3.08-4.57a6.17 6.17 0 0 1 1.71-8.54l4.92-3.28a3 3 0 0 0 1.37-2.5v-2.93a1 1 0 0 1 1-1h8a1 1 0 0 1 1 1v2.93a3 3 0 0 0 1.34 2.5l4.92 3.28a6.17 6.17 0 0 1 1.74 8.54l-3 4.57a7 7 0 0 0 -.68 6.48l4.65 11.62a1.55 1.55 0 0 1 .11.56 1.52 1.52 0 0 1 -1.6 1.52h-25a1.52 1.52 0 0 1 -1.48-1.52 1.55 1.55 0 0 1 .11-.56l4.65-11.62a7 7 0 0 0 -.68-6.48z" fill="#6a6a6c" data-original="#151a6a" style="" class=""></path> </g> </svg> 