<?xml version="1.0" standalone="no"?>
<!DOCTYPE svg PUBLIC "-//W3C//DTD SVG 20010904//EN"
 "http://www.w3.org/TR/2001/REC-SVG-20010904/DTD/svg10.dtd">
<svg version="1.0" xmlns="http://www.w3.org/2000/svg"
 width="727.000000pt" height="491.000000pt" viewBox="0 0 727.000000 491.000000"
 preserveAspectRatio="xMidYMid meet">

<g transform="translate(0.000000,491.000000) scale(0.100000,-0.100000)"
fill="#000000" stroke="none">
<path d="M3812 4355 c-118 -37 -198 -157 -222 -335 -15 -111 -35 -160 -133
-330 -145 -252 -213 -362 -557 -910 -373 -594 -683 -1097 -742 -1207 -21 -39
-35 -74 -30 -77 32 -19 214 184 537 599 275 353 795 1002 929 1160 104 123
192 215 205 215 28 0 311 -167 311 -184 0 -5 -49 -154 -109 -330 -157 -464
-156 -458 -156 -761 0 -242 1 -252 23 -297 24 -48 94 -118 119 -118 21 0 15
26 -34 143 l-48 112 0 150 c0 141 3 159 39 300 65 254 246 755 273 755 23 0
129 -107 203 -205 38 -49 112 -169 165 -265 113 -204 157 -260 167 -212 18 79
-230 505 -396 680 -111 118 -114 126 -90 260 25 142 26 367 1 471 -71 296
-252 450 -455 386z m131 -61 c165 -84 261 -251 274 -480 6 -107 -12 -254 -45
-356 -23 -71 -40 -72 -150 -12 -109 59 -128 73 -142 104 -13 31 -5 59 50 173
34 69 44 102 48 156 6 85 0 110 -34 144 -38 39 -111 37 -201 -3 -38 -18 -70
-27 -75 -22 -15 15 -12 66 7 106 36 75 177 206 222 206 8 0 28 -7 46 -16z
m-67 -349 c29 -45 -9 -169 -74 -237 -34 -36 -52 -35 -79 5 -60 89 -58 126 15
199 68 68 109 77 138 33z m-221 -275 c29 -55 20 -88 -37 -144 l-53 -51 -3 48
c-2 37 4 63 27 113 16 35 35 64 40 64 6 0 17 -13 26 -30z"/>
<path d="M3882 1285 c-84 -19 -157 -62 -228 -135 -126 -129 -179 -248 -177
-400 0 -47 7 -109 16 -138 43 -144 145 -265 278 -331 190 -95 375 -80 541 46
172 131 237 310 193 537 -47 246 -239 419 -480 432 -49 2 -104 -2 -143 -11z
m204 -66 c218 -40 380 -274 361 -519 -3 -36 -13 -86 -23 -110 -26 -68 -97
-173 -140 -209 -190 -159 -551 -96 -666 116 -46 85 -61 154 -56 273 3 102 5
111 45 192 65 130 167 214 303 250 78 20 99 21 176 7z"/>
<path d="M1025 1274 c-91 -8 -175 -27 -186 -40 -9 -11 -11 -127 -7 -490 3
-261 9 -478 13 -482 4 -4 88 -7 188 -7 198 0 246 9 326 59 117 75 162 244 98
374 -25 51 -123 147 -169 166 -18 8 -96 17 -173 21 -77 4 -150 11 -162 16 -37
14 -55 131 -36 242 10 63 31 70 227 78 94 4 179 10 189 14 24 10 16 27 -17 36
-34 9 -236 18 -291 13z m219 -483 c51 -21 124 -90 150 -143 56 -111 19 -213
-105 -286 -58 -35 -144 -52 -261 -52 l-108 0 0 251 0 251 148 -4 c81 -3 160
-10 176 -17z"/>
<path d="M1888 1269 c-48 -4 -104 -15 -124 -24 l-36 -15 4 -479 c1 -264 7
-483 11 -488 14 -13 517 -17 552 -3 25 10 27 13 13 21 -27 15 -164 30 -336 37
l-162 7 -2 200 -1 200 69 2 c112 4 292 23 319 33 14 5 25 14 25 19 0 21 -44
32 -172 41 -249 19 -236 15 -249 63 -14 52 -4 215 16 263 8 20 25 39 42 46 15
6 109 14 208 18 99 4 188 11 198 15 24 10 16 27 -17 36 -47 13 -267 18 -358 8z"/>
<path d="M2902 1233 c-11 -27 -52 -115 -90 -198 -78 -165 -134 -301 -222 -535
-84 -221 -97 -285 -54 -249 22 18 60 100 178 386 114 276 177 413 198 431 21
17 39 -2 78 -78 40 -80 182 -418 241 -574 46 -124 78 -176 106 -176 34 0 2
102 -145 460 -157 383 -247 580 -266 580 -2 0 -13 -21 -24 -47z"/>
<path d="M4787 1255 c-22 -21 -28 -141 -30 -605 l-2 -405 130 -3 c242 -5 372
23 458 98 48 43 84 112 93 184 8 53 -23 127 -81 196 -62 74 -63 78 -21 167 62
129 59 207 -10 283 -66 72 -173 100 -391 100 -103 0 -135 -3 -146 -15z m372
-71 c89 -26 151 -96 154 -174 2 -50 -18 -85 -58 -104 -98 -47 -288 -62 -355
-28 -64 31 -87 125 -59 240 13 54 32 79 63 86 38 8 202 -4 255 -20z m-12 -428
c81 -22 135 -56 171 -110 26 -40 32 -58 32 -103 0 -56 -23 -114 -57 -145 -77
-70 -349 -112 -422 -66 -29 18 -44 101 -43 243 1 150 8 176 53 193 42 15 190
9 266 -12z"/>
<path d="M5987 1208 c-43 -58 -134 -257 -285 -624 -88 -213 -119 -301 -109
-310 16 -16 71 57 130 173 54 106 65 122 90 127 16 3 123 6 236 6 l207 0 50
-112 c27 -61 61 -129 77 -150 24 -34 54 -48 69 -32 22 21 -398 954 -428 954
-7 0 -24 -15 -37 -32z m98 -220 c73 -150 137 -320 124 -333 -22 -22 -362 -15
-386 9 -14 14 176 436 197 436 5 0 34 -51 65 -112z"/>
</g>
</svg>
