<?xml version="1.0" encoding="UTF-8"?> <svg xmlns="http://www.w3.org/2000/svg" xmlns:xlink="http://www.w3.org/1999/xlink" xmlns:svgjs="http://svgjs.com/svgjs" width="512" height="512" x="0" y="0" viewBox="0 0 64 64" style="enable-background:new 0 0 512 512" xml:space="preserve" class=""> <g> <path xmlns="http://www.w3.org/2000/svg" d="m39 17a23 23 0 1 0 23 23 23.026 23.026 0 0 0 -23-23zm-8.625 29.971c-1.792.022-3.095.031-4.047.031a11.291 11.291 0 0 1 -2.708-.1 1.141 1.141 0 0 1 -.689-.7c-.179-.579.056-.889.833-1.919.642-.85 1.837-2.433 3.839-5.327a7.389 7.389 0 0 0 1.188-2.422l.036-.322a2.222 2.222 0 0 0 -4.408-.39 1 1 0 1 1 -1.962-.381 4.222 4.222 0 0 1 8.371.823c0 .109-.012.139-.071.618a9.226 9.226 0 0 1 -1.509 3.212c-1.693 2.447-2.817 3.969-3.52 4.906 1.239 0 2.987-.007 4.621-.028a1.03 1.03 0 0 1 1.013.987 1 1 0 0 1 -.987 1.012zm11.625-3.808h-.771c-.009 1.41-.018 2.508-.021 2.845a1 1 0 0 1 -1 .992h-.008a1 1 0 0 1 -.991-1.008c.007-.86.015-1.826.021-2.829h-5.3a1 1 0 0 1 -.882-1.472c.707-1.321 4.269-7.958 4.98-8.858a1.73 1.73 0 0 1 3.206.987c.037.468.025 4.135 0 7.343h.766a1 1 0 0 1 0 2zm13 3.837a1 1 0 0 1 -1-1l-.019-4.462c.016-2.773-.851-3.2-2.248-3.2-1.609 0-2.733 1.314-2.733 3.2v4.462a1 1 0 0 1 -2 0v-13a1 1 0 0 1 2 0v4.218a4.554 4.554 0 0 1 2.733-.877c3.136 0 4.268 2.067 4.248 5.2l.019 4.459a1 1 0 0 1 -1 1z" fill="#dbcece" data-original="#c4a2fc" style=""></path> <path xmlns="http://www.w3.org/2000/svg" d="m35.606 41.163h3.636c.017-2.726.026-5.371.015-6.561-.741 1.225-2.345 4.143-3.651 6.561z" fill="#dbcece" data-original="#c4a2fc" style=""></path> <g xmlns="http://www.w3.org/2000/svg" fill="#151a6a"> <path d="m34.868 35.5a1 1 0 0 0 -.372-1.364l-6.496-3.716v-13.42a1 1 0 0 0 -2 0v14a1.167 1.167 0 0 0 .5.868l7 4a1 1 0 0 0 1.368-.368z" fill="#6a6a6c" data-original="#151a6a" style="" class=""></path> <path d="m48.017 12.456a1 1 0 1 0 -1.68 1.085 23.055 23.055 0 1 1 -3.85-4.541h-1.487a1 1 0 0 0 0 2h4a1 1 0 0 0 1-1v-4a1 1 0 0 0 -2 0v1.68a24.888 24.888 0 1 0 4.017 4.776z" fill="#6a6a6c" data-original="#151a6a" style="" class=""></path> <path d="m27 9a1 1 0 0 0 1-1v-2a1 1 0 0 0 -2 0v2a1 1 0 0 0 1 1z" fill="#6a6a6c" data-original="#151a6a" style="" class=""></path> <path d="m26 44v2a1 1 0 0 0 2 0v-2a1 1 0 0 0 -2 0z" fill="#6a6a6c" data-original="#151a6a" style="" class=""></path> <path d="m44 26a1 1 0 0 0 1 1h2a1 1 0 0 0 0-2h-2a1 1 0 0 0 -1 1z" fill="#6a6a6c" data-original="#151a6a" style="" class=""></path> <path d="m7 25a1 1 0 0 0 0 2h2a1 1 0 0 0 0-2z" fill="#6a6a6c" data-original="#151a6a" style="" class=""></path> </g> </g> </svg> 